<svg width="3205" height="215" xmlns="http://www.w3.org/2000/svg" xmlns:xlink="http://www.w3.org/1999/xlink" xml:space="preserve" overflow="hidden"><g transform="translate(-520 -617)"><path d="M953.703 691.705 953.446 692.769C952.761 695.142 952.048 697.507 951.306 699.863 950.563 702.219 949.993 703.991 949.594 705.179L937.489 736.542 969.97 736.542 958.024 705.268C957.703 704.267 957.112 702.43 956.252 699.756 955.391 697.083 954.608 694.65 953.902 692.459ZM944.329 669.392 963.181 669.392 1007.56 788.067 987.755 788.067 974.959 753.826 932.026 753.826 919.387 788.067 899.745 788.067Z" stroke="#4385F4" stroke-width="9" stroke-linejoin="round" stroke-miterlimit="10" fill="#4385F4" fill-rule="evenodd"/><text fill="#000000" fill-opacity="0" font-family="Arial,Arial_MSFontService,sans-serif" font-size="118.674" x="899.745" y="773.232">A</text><path d="M1014.92 669.392 1041.02 669.392 1074.36 761.059 1108.54 669.392 1134.5 669.392 1134.5 788.067 1115.55 788.067 1115.55 717.358C1115.55 713.866 1115.61 710.222 1115.71 706.425 1115.77 704.527 1115.83 702.676 1115.9 700.874L1116.13 695.949 1081.84 788.067 1065.69 788.067 1032.41 696.358 1032.63 700.829C1032.71 702.747 1032.79 704.771 1032.86 706.904 1033 711.168 1033.07 714.969 1033.07 718.306L1033.07 788.067 1014.92 788.067Z" stroke="#EB4F42" stroke-width="9" stroke-linejoin="round" stroke-miterlimit="10" fill="#EB4F42" fill-rule="evenodd"/><text fill="#000000" fill-opacity="0" font-family="Arial,Arial_MSFontService,sans-serif" font-size="118.674" x="1014.92" y="773.232">M</text><path d="M1207.86 684.825C1199.81 684.825 1193.2 686.563 1188.06 690.04 1182.91 693.517 1179.07 698.513 1176.54 705.027 1174.01 711.542 1172.74 719.429 1172.74 728.69 1172.74 737.937 1174 745.841 1176.5 752.401 1179.01 758.961 1182.81 764 1187.92 767.517 1193.03 771.034 1199.59 772.793 1207.63 772.793 1215.77 772.793 1222.39 771.035 1227.47 767.519 1232.55 764.003 1236.31 758.941 1238.76 752.332 1241.21 745.723 1242.43 737.842 1242.43 728.69 1242.43 714.812 1239.66 704.031 1234.13 696.349 1228.59 688.666 1219.84 684.825 1207.86 684.825ZM1207.86 667.62C1219.86 667.62 1229.96 670.162 1238.16 675.247 1246.35 680.332 1252.5 687.442 1256.62 696.578 1260.74 705.713 1262.8 716.417 1262.8 728.69 1262.8 737.747 1261.64 746.014 1259.32 753.492 1257 760.97 1253.53 767.425 1248.92 772.859 1244.31 778.293 1238.56 782.481 1231.67 785.424 1224.78 788.367 1216.77 789.839 1207.63 789.839 1198.35 789.839 1190.23 788.365 1183.28 785.418 1176.32 782.471 1170.57 778.28 1166.01 772.845 1161.45 767.411 1158.05 760.945 1155.81 753.448 1153.57 745.951 1152.46 737.646 1152.46 728.532 1152.46 716.444 1154.46 705.82 1158.47 696.66 1162.48 687.499 1168.61 680.369 1176.86 675.269 1185.12 670.17 1195.45 667.62 1207.86 667.62Z" stroke="#FBBC03" stroke-width="9" stroke-linejoin="round" stroke-miterlimit="10" fill="#FBBC03" fill-rule="evenodd"/><text fill="#000000" fill-opacity="0" font-family="Arial,Arial_MSFontService,sans-serif" font-size="122.219" x="1152.46" y="774.562">O</text><path d="M1299.67 686.202 1299.67 771.099 1312.91 771.099C1327.36 771.099 1338.14 767.517 1345.26 760.353 1352.37 753.189 1355.93 742.438 1355.93 728.097 1355.93 718.487 1354.39 710.601 1351.31 704.441 1348.23 698.281 1343.71 693.701 1337.76 690.701 1331.81 687.702 1324.47 686.202 1315.75 686.202ZM1280.18 669.392 1317.02 669.392C1329.07 669.392 1339.53 671.607 1348.39 676.036 1357.26 680.466 1364.11 687.019 1368.95 695.697 1373.8 704.374 1376.22 715.016 1376.22 727.624 1376.22 740.892 1373.75 752.016 1368.81 760.997 1363.87 769.978 1356.71 776.735 1347.35 781.268 1337.98 785.8 1326.68 788.067 1313.46 788.067L1280.18 788.067Z" stroke="#31A750" stroke-width="9" stroke-linejoin="round" stroke-miterlimit="10" fill="#31A750" fill-rule="evenodd"/><text fill="#000000" fill-opacity="0" font-family="Arial,Arial_MSFontService,sans-serif" font-size="118.674" x="1280.18" y="773.232">D</text><path d="M1467.48 685.022C1466.94 687.224 1466.32 689.547 1465.63 691.991 1464.93 694.435 1464.24 696.718 1463.57 698.839 1462.9 700.961 1462.35 702.666 1461.92 703.955L1449.35 738.679 1485.85 738.679 1473.44 703.955C1473.06 702.774 1472.49 701.001 1471.71 698.638 1470.93 696.275 1470.15 693.831 1469.37 691.306 1468.59 688.782 1467.96 686.687 1467.48 685.022ZM1459.18 669.795 1476.1 669.795 1520.81 788.067 1503.49 788.067 1490.44 753.02 1444.28 753.02 1431.38 788.067 1414.22 788.067Z" stroke="#747474" stroke-width="7" stroke-linejoin="round" stroke-miterlimit="10" fill="#747474" fill-rule="evenodd"/><text fill="#000000" fill-opacity="0" font-family="Arial,Arial_MSFontService,sans-serif" font-size="118.271" x="1414.22" y="773.283">A</text><path d="M1789.36 744.964 1776.96 745.528C1766.7 745.904 1759.49 747.609 1755.33 750.643 1751.16 753.678 1749.08 757.908 1749.08 763.333 1749.08 768.059 1750.51 771.524 1753.35 773.726 1756.2 775.928 1759.96 777.029 1764.63 777.029 1771.83 777.029 1777.75 775.001 1782.4 770.946 1787.04 766.891 1789.36 760.889 1789.36 752.94ZM1772.69 697.752C1783.64 697.752 1791.84 700.182 1797.26 705.043 1802.69 709.904 1805.4 717.571 1805.4 728.045L1805.4 788.067 1793.8 788.067 1790.65 775.176 1790.01 775.176C1787.54 778.399 1784.96 781.084 1782.28 783.233 1779.59 785.381 1776.49 786.992 1772.97 788.067 1769.45 789.141 1765.17 789.678 1760.12 789.678 1754.75 789.678 1749.97 788.711 1745.78 786.778 1741.59 784.844 1738.3 781.93 1735.91 778.036 1733.52 774.142 1732.32 769.187 1732.32 763.172 1732.32 754.148 1735.79 747.3 1742.72 742.627 1749.65 737.954 1760.15 735.403 1774.22 734.973L1789.53 734.329 1789.53 729.334C1789.53 722.405 1787.98 717.517 1784.89 714.671 1781.81 711.824 1777.49 710.401 1771.96 710.401 1767.4 710.401 1763.02 711.059 1758.83 712.374 1754.64 713.69 1750.61 715.261 1746.75 717.088L1741.59 705.325C1745.78 703.176 1750.55 701.377 1755.89 699.927 1761.23 698.477 1766.83 697.752 1772.69 697.752ZM1632.07 697.671C1638.73 697.671 1644.34 698.88 1648.9 701.297 1653.47 703.714 1656.83 707.393 1658.98 712.334L1660.02 712.334C1662.87 707.339 1666.8 703.646 1671.83 701.256 1676.85 698.866 1682.26 697.671 1688.06 697.671 1697.89 697.671 1705.31 700.236 1710.34 705.365 1715.36 710.495 1717.87 718.699 1717.87 729.978L1717.87 788.067 1701.84 788.067 1701.84 731.992C1701.84 725.01 1700.4 719.773 1697.53 716.282 1694.65 712.791 1690.37 711.045 1684.68 711.045 1676.62 711.045 1670.81 713.476 1667.23 718.336 1663.66 723.197 1661.88 730.327 1661.88 739.727L1661.88 788.067 1645.76 788.067 1645.76 731.992C1645.76 727.32 1645.12 723.439 1643.83 720.351 1642.54 717.262 1640.63 714.939 1638.11 713.382 1635.58 711.824 1632.39 711.045 1628.52 711.045 1622.99 711.045 1618.57 712.24 1615.27 714.63 1611.97 717.02 1609.58 720.552 1608.1 725.225 1606.62 729.898 1605.88 735.618 1605.88 742.385L1605.88 788.067 1589.69 788.067 1589.69 699.282 1602.5 699.282 1604.84 711.529 1605.72 711.529C1607.49 708.467 1609.74 705.916 1612.45 703.875 1615.16 701.834 1618.18 700.289 1621.51 699.242 1624.84 698.195 1628.36 697.671 1632.07 697.671ZM1570.39 697.671C1572 697.671 1573.75 697.765 1575.63 697.953 1577.51 698.141 1579.12 698.369 1580.46 698.638L1578.77 713.704C1577.48 713.382 1575.99 713.113 1574.3 712.898 1572.6 712.683 1571.03 712.576 1569.58 712.576 1566.15 712.576 1562.87 713.22 1559.75 714.509 1556.64 715.799 1553.9 717.665 1551.54 720.109 1549.17 722.553 1547.32 725.534 1545.98 729.052 1544.63 732.57 1543.96 736.585 1543.96 741.096L1543.96 788.067 1527.69 788.067 1527.69 699.282 1540.74 699.282 1542.67 715.315 1543.4 715.315C1545.23 712.092 1547.44 709.138 1550.05 706.453 1552.65 703.767 1555.66 701.632 1559.07 700.048 1562.48 698.463 1566.25 697.671 1570.39 697.671Z" stroke="#999999" stroke-width="7" stroke-linejoin="round" stroke-miterlimit="10" fill="#999999" fill-rule="evenodd"/><text fill="#000000" fill-opacity="0" font-family="Arial,Arial_MSFontService,sans-serif" font-size="92.0068" x="1527.69" y="778.177">rma</text><path d="M1841.75 658.409C1849.8 658.409 1855.93 660.182 1860.11 663.727 1864.3 667.271 1866.4 671.908 1866.4 677.638 1866.4 681.183 1865.7 684.253 1864.3 686.849 1862.91 689.445 1860.97 691.567 1858.5 693.214 1856.03 694.861 1853.17 696.025 1849.91 696.705L1849.91 697.081C1856.14 697.869 1860.84 699.856 1864.01 703.043 1867.18 706.23 1868.76 710.437 1868.76 715.665 1868.76 720.213 1867.69 724.259 1865.54 727.804 1863.39 731.349 1860.09 734.124 1855.63 736.129 1851.17 738.134 1845.45 739.137 1838.47 739.137 1834.28 739.137 1830.39 738.797 1826.81 738.116 1823.23 737.436 1819.83 736.344 1816.61 734.84L1816.61 725.011C1819.87 726.658 1823.39 727.938 1827.19 728.851 1830.99 729.764 1834.64 730.221 1838.15 730.221 1844.99 730.221 1849.9 728.896 1852.89 726.246 1855.88 723.596 1857.38 719.944 1857.38 715.289 1857.38 712.21 1856.57 709.694 1854.96 707.743 1853.35 705.791 1850.96 704.35 1847.79 703.419 1844.62 702.488 1840.67 702.022 1835.94 702.022L1828.59 702.022 1828.59 693.106 1836.05 693.106C1840.46 693.106 1844.08 692.525 1846.93 691.361 1849.78 690.197 1851.9 688.559 1853.29 686.446 1854.69 684.334 1855.39 681.863 1855.39 679.034 1855.39 675.346 1854.18 672.49 1851.76 670.467 1849.35 668.444 1845.93 667.433 1841.53 667.433 1838.81 667.433 1836.33 667.728 1834.09 668.319 1831.85 668.91 1829.78 669.688 1827.86 670.655 1825.95 671.622 1824.09 672.714 1822.3 673.932L1816.98 666.466C1819.89 664.246 1823.4 662.348 1827.54 660.772 1831.67 659.197 1836.41 658.409 1841.75 658.409Z" stroke="#999999" stroke-width="7" stroke-linejoin="round" stroke-miterlimit="10" fill="#999999" fill-rule="evenodd"/><text fill="#000000" fill-opacity="0" font-family="Arial,Arial_MSFontService,sans-serif" font-size="80.7275" x="1816.61" y="729.046">3</text><path d="M1922.15 670.279 1945.92 670.279 1980.8 766.233 1981.37 766.233 2017.14 670.279 2040.74 670.279 2040.74 788.067 2024.79 788.067 2024.79 717.571C2024.79 714.026 2024.85 710.333 2024.95 706.493 2025.06 702.653 2025.21 699 2025.4 695.536 2025.58 692.072 2025.76 689.212 2025.92 686.956L2025.2 686.956 1987.57 788.067 1973.47 788.067 1936.73 686.795 1936.09 686.795C1936.25 688.997 1936.42 691.83 1936.61 695.294 1936.8 698.759 1936.96 702.518 1937.1 706.574 1937.23 710.629 1937.3 714.617 1937.3 718.538L1937.3 788.067 1922.15 788.067Z" stroke="#747474" stroke-width="7" stroke-linejoin="round" stroke-miterlimit="10" fill="#747474" fill-rule="evenodd"/><text fill="#000000" fill-opacity="0" font-family="Arial,Arial_MSFontService,sans-serif" font-size="117.788" x="1922.15" y="773.343">M</text><path d="M2281.04 744.964 2268.63 745.528C2258.38 745.904 2251.17 747.609 2247 750.643 2242.84 753.678 2240.76 757.908 2240.76 763.333 2240.76 768.059 2242.18 771.524 2245.03 773.726 2247.88 775.928 2251.64 777.029 2256.31 777.029 2263.51 777.029 2269.43 775.001 2274.07 770.946 2278.72 766.891 2281.04 760.889 2281.04 752.94ZM2137.37 699.282 2153.56 699.282 2153.56 788.067 2137.37 788.067ZM2063.37 699.282 2079.56 699.282 2079.56 788.067 2063.37 788.067ZM2264.36 697.752C2275.32 697.752 2283.51 700.182 2288.94 705.043 2294.36 709.904 2297.07 717.571 2297.07 728.045L2297.07 788.067 2285.47 788.067 2282.33 775.176 2281.69 775.176C2279.22 778.399 2276.64 781.084 2273.95 783.233 2271.27 785.381 2268.16 786.992 2264.65 788.067 2261.13 789.141 2256.85 789.678 2251.8 789.678 2246.43 789.678 2241.65 788.711 2237.46 786.778 2233.27 784.844 2229.98 781.93 2227.59 778.036 2225.2 774.142 2224 769.187 2224 763.172 2224 754.148 2227.47 747.3 2234.39 742.627 2241.32 737.954 2251.82 735.403 2265.9 734.973L2281.2 734.329 2281.2 729.334C2281.2 722.405 2279.66 717.517 2276.57 714.671 2273.48 711.824 2269.17 710.401 2263.64 710.401 2259.07 710.401 2254.7 711.059 2250.51 712.374 2246.32 713.69 2242.29 715.261 2238.42 717.088L2233.27 705.325C2237.46 703.176 2242.22 701.377 2247.57 699.927 2252.91 698.477 2258.51 697.752 2264.36 697.752ZM2360.07 697.671C2361.68 697.671 2363.42 697.765 2365.3 697.953 2367.18 698.141 2368.79 698.369 2370.14 698.638L2370.06 699.282 2383.23 699.282 2402.09 750.442C2403.05 753.074 2403.95 755.639 2404.78 758.136 2405.62 760.634 2406.34 763.051 2406.96 765.387 2407.58 767.724 2408.07 770.02 2408.45 772.276L2409.01 772.276C2409.66 769.536 2410.57 766.206 2411.75 762.285 2412.94 758.364 2414.22 754.39 2415.62 750.362L2433.67 699.282 2451.07 699.282 2412.72 800.635C2410.63 806.275 2408.09 811.122 2405.11 815.177 2402.13 819.232 2398.59 822.348 2394.51 824.523 2390.43 826.698 2385.6 827.786 2380.01 827.786 2377.43 827.786 2375.16 827.638 2373.2 827.343 2371.24 827.047 2369.56 826.712 2368.17 826.336L2368.17 813.445C2369.35 813.714 2370.79 813.955 2372.48 814.17 2374.17 814.385 2375.93 814.492 2377.75 814.492 2381.14 814.492 2384.05 813.834 2386.5 812.518 2388.94 811.203 2391.03 809.336 2392.78 806.919 2394.53 804.502 2395.99 801.682 2397.17 798.46L2401.2 787.986 2369.12 707.71 2368.44 713.704C2367.16 713.382 2365.67 713.113 2363.97 712.898 2362.28 712.683 2360.71 712.576 2359.26 712.576 2355.82 712.576 2352.55 713.22 2349.43 714.509 2346.32 715.799 2343.58 717.665 2341.21 720.109 2338.85 722.553 2337 725.534 2335.65 729.052 2334.31 732.57 2333.64 736.585 2333.64 741.096L2333.64 788.067 2317.37 788.067 2317.37 699.282 2330.42 699.282 2332.35 715.315 2333.08 715.315C2334.9 712.092 2337.12 709.138 2339.72 706.453 2342.33 703.767 2345.34 701.632 2348.75 700.048 2352.16 698.463 2355.93 697.671 2360.07 697.671ZM2183.1 679.141 2193.09 679.141 2193.09 699.282 2218.79 699.282 2218.79 711.77 2193.09 711.77 2193.09 761.641C2193.09 766.636 2194.29 770.369 2196.68 772.84 2199.07 775.31 2202.27 776.546 2206.3 776.546 2208.61 776.546 2210.95 776.344 2213.31 775.941 2215.68 775.539 2217.72 775.015 2219.44 774.37L2219.44 786.778C2217.61 787.583 2215.18 788.268 2212.14 788.832 2209.11 789.396 2206.01 789.678 2202.84 789.678 2198 789.678 2193.63 788.845 2189.71 787.18 2185.79 785.515 2182.66 782.669 2180.32 778.64 2177.98 774.612 2176.82 769.026 2176.82 761.883L2176.82 711.77 2164.49 711.77 2164.49 704.278 2177.38 698.316ZM2145.58 665.686C2148.16 665.686 2150.38 666.438 2152.23 667.942 2154.08 669.446 2155.01 671.89 2155.01 675.274 2155.01 678.657 2154.08 681.115 2152.23 682.645 2150.38 684.176 2148.16 684.942 2145.58 684.942 2142.95 684.942 2140.74 684.176 2138.94 682.645 2137.14 681.115 2136.24 678.657 2136.24 675.274 2136.24 671.89 2137.14 669.446 2138.94 667.942 2140.74 666.438 2142.95 665.686 2145.58 665.686ZM2071.58 665.686C2074.16 665.686 2076.38 666.438 2078.23 667.942 2080.08 669.446 2081.01 671.89 2081.01 675.274 2081.01 678.657 2080.08 681.115 2078.23 682.645 2076.38 684.176 2074.16 684.942 2071.58 684.942 2068.95 684.942 2066.74 684.176 2064.94 682.645 2063.14 681.115 2062.24 678.657 2062.24 675.274 2062.24 671.89 2063.14 669.446 2064.94 667.942 2066.74 666.438 2068.95 665.686 2071.58 665.686ZM2100.37 662.705 2116.64 662.705 2116.64 788.067 2100.37 788.067Z" stroke="#999999" stroke-width="7" stroke-linejoin="round" stroke-miterlimit="10" fill="#999999" fill-rule="evenodd"/><text fill="#000000" fill-opacity="0" font-family="Arial,Arial_MSFontService,sans-serif" font-size="165.081" x="2062.24" y="807.151">ilitary</text><path d="M2545.28 682.686C2536.68 682.686 2529.62 684.552 2524.09 688.285 2518.56 692.018 2514.45 697.335 2511.76 704.237 2509.08 711.139 2507.73 719.397 2507.73 729.011 2507.73 738.572 2509.06 746.83 2511.72 753.786 2514.38 760.741 2518.46 766.112 2523.97 769.899 2529.47 773.685 2536.5 775.579 2545.04 775.579 2553.68 775.579 2560.75 773.685 2566.23 769.899 2571.7 766.112 2575.73 760.741 2578.31 753.786 2580.89 746.83 2582.18 738.572 2582.18 729.011 2582.18 714.509 2579.22 703.163 2573.32 694.972 2567.41 686.781 2558.06 682.686 2545.28 682.686ZM2545.28 668.425C2557.2 668.425 2567.19 670.923 2575.25 675.918 2583.31 680.913 2589.37 687.936 2593.46 696.986 2597.54 706.037 2599.58 716.712 2599.58 729.011 2599.58 738.089 2598.43 746.347 2596.12 753.786 2593.81 761.225 2590.38 767.616 2585.84 772.96 2581.3 778.305 2575.64 782.427 2568.84 785.327 2562.05 788.228 2554.11 789.678 2545.04 789.678 2535.8 789.678 2527.75 788.228 2520.91 785.327 2514.06 782.427 2508.38 778.291 2503.87 772.92 2499.36 767.549 2495.98 761.131 2493.76 753.665 2491.53 746.199 2490.41 737.927 2490.41 728.85 2490.41 716.765 2492.4 706.184 2496.37 697.107 2500.35 688.03 2506.4 680.98 2514.54 675.958 2522.68 670.936 2532.92 668.425 2545.28 668.425Z" stroke="#747474" stroke-width="7" stroke-linejoin="round" stroke-miterlimit="10" fill="#747474" fill-rule="evenodd"/><text fill="#000000" fill-opacity="0" font-family="Arial,Arial_MSFontService,sans-serif" font-size="121.252" x="2490.41" y="774.521">O</text><path d="M2656.19 711.045C2650.34 711.045 2645.68 712.2 2642.21 714.509 2638.75 716.819 2636.26 720.31 2634.76 724.983 2633.26 729.656 2632.48 735.537 2632.42 742.627L2632.42 743.836C2632.42 754.363 2634.14 762.42 2637.58 768.006 2641.02 773.591 2647.25 776.384 2656.27 776.384 2663.68 776.384 2669.31 773.538 2673.15 767.844 2676.99 762.151 2678.91 754.014 2678.91 743.433 2678.91 732.691 2677 724.607 2673.19 719.182 2669.38 713.758 2663.71 711.045 2656.19 711.045ZM2782.95 710.239C2776.4 710.239 2771.14 712.374 2767.16 716.644 2763.19 720.914 2760.85 727.024 2760.15 734.973L2803.82 734.973C2803.77 730.086 2802.99 725.789 2801.48 722.083 2799.98 718.377 2797.71 715.476 2794.68 713.382 2791.64 711.287 2787.73 710.239 2782.95 710.239ZM2711.23 699.282 2727.42 699.282 2727.42 800.957C2727.42 806.328 2726.52 811.028 2724.73 815.056 2722.93 819.085 2720.11 822.2 2716.27 824.402 2712.43 826.604 2707.5 827.705 2701.48 827.705 2698.74 827.705 2696.23 827.504 2693.95 827.101 2691.67 826.698 2689.69 826.228 2688.03 825.691L2688.03 812.72C2689.8 813.257 2691.55 813.66 2693.26 813.928 2694.98 814.197 2696.92 814.331 2699.06 814.331 2702.66 814.331 2705.59 813.338 2707.85 811.35 2710.1 809.363 2711.23 805.684 2711.23 800.313ZM2872.45 697.671C2877.29 697.671 2881.81 698.154 2886.03 699.121 2890.24 700.088 2893.78 701.297 2896.62 702.747L2891.79 715.879C2888.78 714.697 2885.54 713.65 2882.08 712.737 2878.62 711.824 2875.33 711.367 2872.21 711.367 2866.52 711.367 2861.8 712.616 2858.07 715.114 2854.34 717.611 2851.53 721.277 2849.65 726.111 2847.77 730.945 2846.83 736.907 2846.83 743.997 2846.83 750.872 2847.76 756.686 2849.61 761.439 2851.46 766.193 2854.2 769.805 2857.83 772.276 2861.45 774.746 2865.98 775.982 2871.4 775.982 2876.18 775.982 2880.48 775.445 2884.3 774.37 2888.11 773.296 2891.63 771.926 2894.85 770.261L2894.85 784.522C2891.73 786.24 2888.3 787.529 2884.54 788.389 2880.78 789.248 2876.24 789.678 2870.92 789.678 2862.76 789.678 2855.61 788.04 2849.49 784.763 2843.37 781.487 2838.63 776.478 2835.27 769.738 2831.91 762.997 2830.24 754.47 2830.24 744.158 2830.24 733.416 2832.03 724.621 2835.63 717.772 2839.23 710.924 2844.21 705.862 2850.58 702.586 2856.94 699.309 2864.23 697.671 2872.45 697.671ZM2783.03 697.671C2790.77 697.671 2797.4 699.323 2802.93 702.626 2808.47 705.929 2812.71 710.589 2815.66 716.604 2818.62 722.62 2820.1 729.71 2820.1 737.874L2820.1 747.058 2759.83 747.058C2759.99 756.565 2762.44 763.856 2767.16 768.932 2771.89 774.008 2778.52 776.546 2787.06 776.546 2792.7 776.546 2797.72 776.008 2802.13 774.934 2806.53 773.86 2811.1 772.276 2815.83 770.181L2815.83 783.797C2811.37 785.838 2806.9 787.328 2802.41 788.268 2797.93 789.208 2792.57 789.678 2786.34 789.678 2777.74 789.678 2770.21 787.959 2763.74 784.522 2757.27 781.084 2752.23 775.995 2748.63 769.254 2745.03 762.514 2743.24 754.202 2743.24 744.319 2743.24 734.544 2744.87 726.178 2748.15 719.223 2751.43 712.267 2756.05 706.936 2762.01 703.23 2767.97 699.524 2774.98 697.671 2783.03 697.671ZM2916.96 679.141 2926.95 679.141 2926.95 699.282 2952.66 699.282 2952.66 711.77 2926.95 711.77 2926.95 761.641C2926.95 766.636 2928.15 770.369 2930.54 772.84 2932.93 775.31 2936.14 776.546 2940.17 776.546 2942.48 776.546 2944.81 776.344 2947.18 775.941 2949.54 775.539 2951.58 775.015 2953.3 774.37L2953.3 786.778C2951.47 787.583 2949.04 788.268 2946.01 788.832 2942.97 789.396 2939.87 789.678 2936.7 789.678 2931.87 789.678 2927.49 788.845 2923.57 787.18 2919.65 785.515 2916.52 782.669 2914.19 778.64 2911.85 774.612 2910.68 769.026 2910.68 761.883L2910.68 711.77 2898.35 711.77 2898.35 704.278 2911.24 698.316ZM2719.45 665.686C2722.03 665.686 2724.24 666.438 2726.09 667.942 2727.95 669.446 2728.87 671.89 2728.87 675.274 2728.87 678.657 2727.95 681.115 2726.09 682.645 2724.24 684.176 2722.03 684.942 2719.45 684.942 2716.82 684.942 2714.6 684.176 2712.8 682.645 2711 681.115 2710.1 678.657 2710.1 675.274 2710.1 671.89 2711 669.446 2712.8 667.942 2714.6 666.438 2716.82 665.686 2719.45 665.686ZM2616.23 662.705 2632.42 662.705 2632.42 693.482C2632.42 697.027 2632.33 700.491 2632.14 703.875 2631.95 707.258 2631.78 709.863 2631.62 711.69L2632.42 711.69C2634.84 707.822 2638.27 704.533 2642.7 701.82 2647.13 699.108 2652.83 697.752 2659.82 697.752 2670.61 697.752 2679.26 701.605 2685.76 709.313 2692.26 717.02 2695.51 728.447 2695.51 743.594 2695.51 753.584 2694.02 762.017 2691.04 768.892 2688.06 775.767 2683.87 780.95 2678.47 784.441 2673.07 787.932 2666.72 789.678 2659.41 789.678 2652.49 789.678 2646.87 788.402 2642.58 785.851 2638.28 783.3 2634.92 780.252 2632.5 776.707L2631.3 776.707 2628.23 788.067 2616.23 788.067Z" stroke="#999999" stroke-width="7" stroke-linejoin="round" stroke-miterlimit="10" fill="#999999" fill-rule="evenodd"/><text fill="#000000" fill-opacity="0" font-family="Arial,Arial_MSFontService,sans-serif" font-size="165" x="2616.23" y="807.08">bject</text><path d="M3018.61 684.136 3018.61 774.048 3033.84 774.048C3049.04 774.048 3060.43 770.235 3068 762.608 3075.58 754.981 3079.36 743.621 3079.36 728.528 3079.36 718.43 3077.72 710.105 3074.45 703.552 3071.17 697 3066.36 692.125 3060.03 688.93 3053.69 685.734 3045.93 684.136 3036.74 684.136ZM3002.1 670.279 3038.03 670.279C3050.06 670.279 3060.46 672.467 3069.21 676.845 3077.97 681.222 3084.73 687.694 3089.51 696.261 3094.29 704.828 3096.68 715.423 3096.68 728.045 3096.68 741.311 3094.24 752.389 3089.35 761.278 3084.46 770.167 3077.39 776.854 3068.12 781.339 3058.86 785.824 3047.62 788.067 3034.41 788.067L3002.1 788.067Z" stroke="#747474" stroke-width="7" stroke-linejoin="round" stroke-miterlimit="10" fill="#747474" fill-rule="evenodd"/><text fill="#000000" fill-opacity="0" font-family="Arial,Arial_MSFontService,sans-serif" font-size="117.788" x="3002.1" y="773.343">D</text><path d="M3544.7 711.126C3536.21 711.126 3529.99 713.959 3526.05 719.625 3522.1 725.292 3520.12 733.255 3520.12 743.513 3520.12 750.335 3521 756.203 3522.74 761.117 3524.49 766.032 3527.17 769.805 3530.8 772.437 3534.42 775.069 3539.11 776.384 3544.86 776.384 3550.5 776.384 3555.14 775.069 3558.8 772.437 3562.45 769.805 3565.13 766.032 3566.85 761.117 3568.57 756.203 3569.43 750.335 3569.43 743.513 3569.43 736.746 3568.57 730.945 3566.85 726.111 3565.13 721.277 3562.46 717.571 3558.84 714.993 3555.21 712.415 3550.5 711.126 3544.7 711.126ZM3290.25 710.239C3283.69 710.239 3278.43 712.374 3274.46 716.644 3270.48 720.914 3268.14 727.024 3267.45 734.973L3311.11 734.973C3311.06 730.086 3310.28 725.789 3308.78 722.083 3307.27 718.377 3305 715.476 3301.97 713.382 3298.93 711.287 3295.03 710.239 3290.25 710.239ZM3148.25 710.239C3141.69 710.239 3136.43 712.374 3132.46 716.644 3128.48 720.914 3126.14 727.024 3125.45 734.973L3169.11 734.973C3169.06 730.086 3168.28 725.789 3166.78 722.083 3165.27 718.377 3163 715.476 3159.97 713.382 3156.93 711.287 3153.03 710.239 3148.25 710.239ZM3471.52 699.282 3487.72 699.282 3487.72 788.067 3471.52 788.067ZM3645.67 697.671C3655.93 697.671 3663.81 700.249 3669.32 705.405 3674.82 710.562 3677.58 718.833 3677.58 730.22L3677.58 788.067 3661.54 788.067 3661.54 732.395C3661.54 725.305 3659.99 719.975 3656.87 716.403 3653.76 712.831 3648.98 711.045 3642.53 711.045 3633.35 711.045 3626.91 713.758 3623.23 719.182 3619.56 724.607 3617.72 732.476 3617.72 742.788L3617.72 788.067 3601.52 788.067 3601.52 699.282 3614.33 699.282 3616.67 711.77 3617.55 711.77C3619.43 708.655 3621.82 706.05 3624.73 703.955 3627.63 701.861 3630.86 700.289 3634.43 699.242 3638.01 698.195 3641.75 697.671 3645.67 697.671ZM3545.02 697.671C3553.18 697.671 3560.35 699.47 3566.53 703.069 3572.71 706.668 3577.51 711.878 3580.95 718.699 3584.39 725.52 3586.11 733.792 3586.11 743.513 3586.11 750.818 3585.15 757.331 3583.25 763.051 3581.34 768.771 3578.57 773.605 3574.95 777.553 3571.32 781.5 3566.96 784.508 3561.86 786.576 3556.75 788.644 3550.98 789.678 3544.54 789.678 3538.52 789.678 3533 788.644 3527.98 786.576 3522.96 784.508 3518.62 781.5 3514.97 777.553 3511.31 773.605 3508.5 768.771 3506.51 763.051 3504.52 757.331 3503.53 750.818 3503.53 743.513 3503.53 733.792 3505.19 725.507 3508.52 718.659 3511.85 711.81 3516.62 706.601 3522.82 703.029 3529.03 699.457 3536.42 697.671 3545.02 697.671ZM3379.74 697.671C3384.58 697.671 3389.1 698.154 3393.32 699.121 3397.54 700.088 3401.07 701.297 3403.91 702.747L3399.08 715.879C3396.07 714.697 3392.84 713.65 3389.37 712.737 3385.91 711.824 3382.62 711.367 3379.5 711.367 3373.81 711.367 3369.1 712.616 3365.36 715.114 3361.63 717.611 3358.82 721.277 3356.94 726.111 3355.06 730.945 3354.12 736.907 3354.12 743.997 3354.12 750.872 3355.05 756.686 3356.9 761.439 3358.76 766.193 3361.5 769.805 3365.12 772.276 3368.75 774.746 3373.27 775.982 3378.7 775.982 3383.48 775.982 3387.77 775.445 3391.59 774.37 3395.4 773.296 3398.92 771.926 3402.14 770.261L3402.14 784.522C3399.03 786.24 3395.59 787.529 3391.83 788.389 3388.07 789.248 3383.53 789.678 3378.21 789.678 3370.05 789.678 3362.91 788.04 3356.78 784.763 3350.66 781.487 3345.92 776.478 3342.56 769.738 3339.21 762.997 3337.53 754.47 3337.53 744.158 3337.53 733.416 3339.33 724.621 3342.92 717.772 3346.52 710.924 3351.51 705.862 3357.87 702.586 3364.23 699.309 3371.53 697.671 3379.74 697.671ZM3290.33 697.671C3298.06 697.671 3304.69 699.323 3310.23 702.626 3315.76 705.929 3320 710.589 3322.96 716.604 3325.91 722.62 3327.39 729.71 3327.39 737.874L3327.39 747.058 3267.12 747.058C3267.28 756.565 3269.73 763.856 3274.46 768.932 3279.18 774.008 3285.81 776.546 3294.35 776.546 3299.99 776.546 3305.02 776.008 3309.42 774.934 3313.83 773.86 3318.39 772.276 3323.12 770.181L3323.12 783.797C3318.66 785.838 3314.19 787.328 3309.7 788.268 3305.22 789.208 3299.86 789.678 3293.63 789.678 3285.04 789.678 3277.5 787.959 3271.03 784.522 3264.56 781.084 3259.52 775.995 3255.92 769.254 3252.33 762.514 3250.53 754.202 3250.53 744.319 3250.53 734.544 3252.17 726.178 3255.44 719.223 3258.72 712.267 3263.34 706.936 3269.3 703.23 3275.26 699.524 3282.27 697.671 3290.33 697.671ZM3148.33 697.671C3156.06 697.671 3162.69 699.323 3168.23 702.626 3173.76 705.929 3178 710.589 3180.96 716.604 3183.91 722.62 3185.39 729.71 3185.39 737.874L3185.39 747.058 3125.12 747.058C3125.28 756.565 3127.73 763.856 3132.46 768.932 3137.18 774.008 3143.81 776.546 3152.35 776.546 3157.99 776.546 3163.02 776.008 3167.42 774.934 3171.83 773.86 3176.39 772.276 3181.12 770.181L3181.12 783.797C3176.66 785.838 3172.19 787.328 3167.7 788.268 3163.22 789.208 3157.86 789.678 3151.63 789.678 3143.04 789.678 3135.5 787.959 3129.03 784.522 3122.56 781.084 3117.52 775.995 3113.92 769.254 3110.33 762.514 3108.53 754.202 3108.53 744.319 3108.53 734.544 3110.17 726.178 3113.44 719.223 3116.72 712.267 3121.34 706.936 3127.3 703.23 3133.26 699.524 3140.27 697.671 3148.33 697.671ZM3424.26 679.141 3434.25 679.141 3434.25 699.282 3459.95 699.282 3459.95 711.77 3434.25 711.77 3434.25 761.641C3434.25 766.636 3435.44 770.369 3437.83 772.84 3440.22 775.31 3443.43 776.546 3447.46 776.546 3449.77 776.546 3452.11 776.344 3454.47 775.941 3456.83 775.539 3458.87 775.015 3460.59 774.37L3460.59 786.778C3458.77 787.583 3456.34 788.268 3453.3 788.832 3450.27 789.396 3447.16 789.678 3444 789.678 3439.16 789.678 3434.78 788.845 3430.86 787.18 3426.94 785.515 3423.81 782.669 3421.48 778.64 3419.14 774.612 3417.97 769.026 3417.97 761.883L3417.97 711.77 3405.65 711.77 3405.65 704.278 3418.54 698.316ZM3208.26 679.141 3218.25 679.141 3218.25 699.282 3243.95 699.282 3243.95 711.77 3218.25 711.77 3218.25 761.641C3218.25 766.636 3219.44 770.369 3221.83 772.84 3224.22 775.31 3227.43 776.546 3231.46 776.546 3233.77 776.546 3236.11 776.344 3238.47 775.941 3240.83 775.539 3242.87 775.015 3244.59 774.37L3244.59 786.778C3242.77 787.583 3240.34 788.268 3237.3 788.832 3234.27 789.396 3231.16 789.678 3228 789.678 3223.16 789.678 3218.78 788.845 3214.86 787.18 3210.94 785.515 3207.81 782.669 3205.48 778.64 3203.14 774.612 3201.97 769.026 3201.97 761.883L3201.97 711.77 3189.65 711.77 3189.65 704.278 3202.54 698.316ZM3479.74 665.686C3482.32 665.686 3484.53 666.438 3486.39 667.942 3488.24 669.446 3489.17 671.89 3489.17 675.274 3489.17 678.657 3488.24 681.115 3486.39 682.645 3484.53 684.176 3482.32 684.942 3479.74 684.942 3477.11 684.942 3474.89 684.176 3473.09 682.645 3471.29 681.115 3470.39 678.657 3470.39 675.274 3470.39 671.89 3471.29 669.446 3473.09 667.942 3474.89 666.438 3477.11 665.686 3479.74 665.686Z" stroke="#999999" stroke-width="7" stroke-linejoin="round" stroke-miterlimit="10" fill="#999999" fill-rule="evenodd"/><text fill="#000000" fill-opacity="0" font-family="Arial,Arial_MSFontService,sans-serif" font-size="123.992" x="3108.53" y="774.179">etection </text><path d="M776.896 746.265C777.356 743.239 776.329 739.788 773.027 735.89 767.343 729.179 757.773 725.285 750.516 720.928 715.659 700.003 680.831 679.019 645.961 658.12 642.372 655.969 638.221 653.133 634.032 653.005 629.423 652.864 625.126 655.881 621.752 658.927 618.923 661.481 617.375 665.169 618.239 669.177 618.724 671.422 619.774 673.474 620.835 675.478 625.001 683.349 629.536 691.01 634.197 698.551 635.184 700.149 636.197 701.76 637.539 703.024 638.692 704.111 640.052 704.907 641.4 705.693 643.352 707.691 647.025 708.976 649.406 710.365 652.456 712.146 655.505 713.925 658.557 715.705 673.492 724.421 688.363 733.263 703.233 742.108 710.671 746.533 718.107 750.96 725.552 755.371 730.764 758.46 738.151 764.871 744.218 764.998 746.03 765.036 747.795 764.447 749.523 763.863 754.038 762.337 758.708 761.264 763.087 759.3 769.465 756.442 776 752.156 776.896 746.265Z" fill="#1A1C1E" fill-rule="evenodd"/><path d="M636.609 656.683C638.459 655.613 641.019 655.764 643.849 657.391 649.486 660.632 654.019 668.479 654 674.93 653.991 678.126 652.858 680.379 651.028 681.438L641.419 687C643.248 685.942 644.381 683.688 644.391 680.493 644.409 674.042 639.876 666.196 634.24 662.955 631.41 661.326 628.849 661.176 627 662.246L636.609 656.683Z" fill="#424633" fill-rule="evenodd"/><path d="M634.534 663.385C628.723 660.159 624.019 662.762 624 669.183 623.981 675.578 628.654 683.387 634.466 686.614 640.277 689.84 644.981 687.237 645 680.842 645.019 674.42 640.345 666.611 634.534 663.385Z" fill="#5B6047" fill-rule="evenodd"/><path d="M642.905 683.368C642.946 683.249 642.959 683.116 643 683 642.644 683.3 642.371 683.733 642 684L642.905 683.368Z" fill="#4F533D" fill-rule="evenodd"/><path d="M642.985 680.037C642.979 679.431 642.932 678.814 642.837 678.187 642.748 677.611 642.604 677.031 642.448 676.448 641.591 673.241 639.763 670.034 637.429 667.654 636.976 667.191 636.512 666.747 636.026 666.354 635.495 665.926 634.946 665.544 634.385 665.215 634.367 665.204 634.348 665.188 634.33 665.176 632.44 664.085 630.702 663.789 629.271 664.14 628.484 665.152 628.006 666.584 628 668.428 627.985 673.748 631.726 680.229 636.353 682.903 638.78 684.305 640.914 684.291 642.447 683.273 642.782 682.407 642.997 681.405 643 680.216 643 680.158 642.985 680.097 642.985 680.037Z" fill="#4F533D" fill-rule="evenodd"/><path d="M638.802 685.967C639.097 685.96 639.403 685.977 639.677 685.923 639.875 685.883 640.043 685.786 640.229 685.722 640.484 685.636 640.751 685.572 640.982 685.443 641.839 684.959 642.499 684.155 642.945 683.109L642.869 683.152C642.9 683.134 642.923 683.104 642.953 683.084 642.971 683.039 642.982 682.986 643 682.941 641.455 683.949 639.302 683.962 636.854 682.575 632.187 679.928 628.414 673.512 628.429 668.245 628.435 666.42 628.918 665.002 629.711 664 629.043 664.16 628.461 664.484 627.949 664.919 627.804 665.042 627.637 665.133 627.508 665.277 627.308 665.497 627.157 665.781 626.994 666.05 626.899 666.205 626.779 666.329 626.698 666.499 626.542 666.827 626.441 667.217 626.336 667.601 626.291 667.763 626.219 667.896 626.184 668.067 626.066 668.645 626.002 669.277 626 669.96 625.984 675.422 629.903 682.087 634.758 684.84 634.849 684.892 634.934 684.912 635.025 684.961 635.536 685.233 636.045 685.479 636.531 685.642 636.732 685.708 636.914 685.717 637.109 685.766 637.472 685.857 637.841 685.966 638.183 685.995 638.4 686.015 638.593 685.971 638.802 685.967Z" fill="#6E7455" fill-rule="evenodd"/><path d="M658.61 681.683C660.459 680.613 663.019 680.764 665.849 682.391 671.486 685.632 676.019 693.479 676 699.93 675.991 703.125 674.858 705.379 673.028 706.438L663.419 712C665.249 710.941 666.381 708.688 666.391 705.492 666.409 699.041 661.876 691.196 656.24 687.954 653.41 686.326 650.849 686.176 649 687.247L658.61 681.683Z" fill="#424633" fill-rule="evenodd"/><path d="M656.032 687.385C650.498 684.159 646.018 686.762 646 693.183 645.982 699.579 650.433 707.387 655.968 710.614 661.502 713.84 665.982 711.238 666 704.842 666.017 698.42 661.566 690.611 656.032 687.385Z" fill="#5B6047" fill-rule="evenodd"/><path d="M664.904 708.368C664.946 708.25 664.958 708.116 665 708 664.644 708.3 664.37 708.733 664 709L664.904 708.368Z" fill="#4F533D" fill-rule="evenodd"/><path d="M664.985 704.037C664.979 703.431 664.932 702.814 664.837 702.187 664.748 701.611 664.604 701.03 664.448 700.447 663.591 697.239 661.763 694.033 659.429 691.653 658.976 691.19 658.512 690.745 658.026 690.353 657.495 689.924 656.946 689.543 656.385 689.214 656.367 689.203 656.348 689.186 656.33 689.176 654.44 688.085 652.701 687.789 651.271 688.14 650.484 689.152 650.006 690.584 650 692.428 649.985 697.748 653.726 704.23 658.353 706.903 660.78 708.305 662.914 708.291 664.447 707.273 664.782 706.407 664.997 705.404 665 704.216 665 704.158 664.987 704.096 664.985 704.037Z" fill="#4F533D" fill-rule="evenodd"/><path d="M659.802 710.964C660.098 710.957 660.404 710.975 660.677 710.918 660.875 710.877 661.043 710.775 661.229 710.708 661.484 710.618 661.751 710.552 661.982 710.417 662.839 709.911 663.499 709.07 663.945 707.976L663.869 708.021C663.9 708.002 663.923 707.971 663.953 707.95 663.971 707.904 663.982 707.848 664 707.801 662.455 708.854 660.302 708.869 657.854 707.418 653.187 704.651 649.415 697.943 649.43 692.438 649.436 690.529 649.919 689.048 650.712 688 650.044 688.167 649.462 688.506 648.949 688.96 648.803 689.089 648.637 689.184 648.508 689.335 648.308 689.564 648.157 689.862 647.994 690.143 647.899 690.305 647.779 690.435 647.698 690.612 647.542 690.955 647.441 691.363 647.336 691.765 647.291 691.934 647.219 692.073 647.184 692.252 647.066 692.856 647.002 693.517 647 694.23 646.984 699.941 650.903 706.909 655.758 709.787 655.849 709.842 655.934 709.863 656.024 709.914 656.536 710.199 657.044 710.456 657.53 710.625 657.73 710.695 657.913 710.705 658.108 710.756 658.471 710.852 658.84 710.964 659.182 710.995 659.399 711.014 659.593 710.969 659.802 710.964Z" fill="#6E7455" fill-rule="evenodd"/><path d="M679.61 693.683C681.459 692.613 684.019 692.764 686.849 694.392 692.485 697.633 697.019 705.48 697 711.931 696.991 715.126 695.858 717.379 694.028 718.438L684.419 724C686.248 722.942 687.381 720.688 687.391 717.493 687.409 711.042 682.876 703.196 677.24 699.955 674.41 698.327 671.849 698.177 670 699.248L679.61 693.683Z" fill="#424633" fill-rule="evenodd"/><path d="M677.534 700.385C671.723 697.159 667.019 699.761 667 706.183 666.981 712.579 671.654 720.388 677.466 723.614 683.277 726.84 687.981 724.238 688 717.842 688.018 711.42 683.344 703.612 677.534 700.385Z" fill="#5B6047" fill-rule="evenodd"/><path d="M686.904 720.368C686.946 720.25 686.958 720.116 687 720 686.644 720.3 686.37 720.733 686 721L686.904 720.368Z" fill="#4F533D" fill-rule="evenodd"/><path d="M685.985 717.037C685.979 716.431 685.931 715.813 685.836 715.187 685.748 714.611 685.604 714.03 685.448 713.447 684.591 710.24 682.762 707.033 680.429 704.653 679.976 704.19 679.512 703.745 679.026 703.353 678.494 702.924 677.946 702.543 677.385 702.214 677.365 702.203 677.348 702.186 677.33 702.176 675.44 701.085 673.702 700.789 672.271 701.14 671.484 702.152 671.006 703.584 671 705.428 670.985 710.748 674.726 717.23 679.353 719.902 681.78 721.304 683.914 721.291 685.447 720.272 685.781 719.406 685.997 718.404 686 717.215 686 717.158 685.986 717.095 685.985 717.037Z" fill="#4F533D" fill-rule="evenodd"/><path d="M681.804 722.966C682.099 722.959 682.405 722.976 682.679 722.922 682.876 722.882 683.045 722.785 683.231 722.721 683.485 722.635 683.752 722.571 683.982 722.442 684.839 721.958 685.499 721.154 685.945 720.108L685.869 720.151C685.9 720.133 685.923 720.103 685.953 720.083 685.971 720.038 685.982 719.985 686 719.94 684.456 720.948 682.302 720.96 679.855 719.573 675.188 716.927 671.416 710.511 671.431 705.245 671.437 703.419 671.92 702.002 672.713 701 672.044 701.16 671.463 701.484 670.95 701.918 670.804 702.042 670.638 702.133 670.508 702.277 670.308 702.497 670.157 702.781 669.994 703.05 669.899 703.205 669.779 703.329 669.699 703.499 669.541 703.827 669.441 704.217 669.336 704.601 669.291 704.763 669.219 704.896 669.184 705.067 669.066 705.645 669.002 706.277 669 706.959 668.984 712.422 672.902 719.087 677.757 721.84 677.848 721.892 677.932 721.913 678.024 721.961 678.535 722.234 679.043 722.48 679.529 722.642 679.729 722.709 679.913 722.718 680.108 722.766 680.47 722.858 680.839 722.966 681.181 722.995 681.401 723.014 681.595 722.971 681.804 722.966Z" fill="#6E7455" fill-rule="evenodd"/><path d="M701.609 706.684C703.459 705.613 706.019 705.764 708.849 707.391 714.485 710.632 719.019 718.479 719 724.93 718.991 728.125 717.858 730.379 716.028 731.438L706.419 737C708.25 735.94 709.381 733.688 709.391 730.493 709.409 724.042 704.876 716.196 699.24 712.955 696.41 711.326 693.849 711.176 692 712.247L701.609 706.684Z" fill="#424633" fill-rule="evenodd"/><path d="M699.032 712.386C693.498 709.159 689.018 711.761 689 718.183 688.982 724.579 693.433 732.388 698.968 735.614 704.502 738.84 708.982 736.238 709 729.842 709.018 723.42 704.567 715.611 699.032 712.386Z" fill="#5B6047" fill-rule="evenodd"/><path d="M707.904 733.367C707.946 733.249 707.958 733.116 708 733 707.644 733.3 707.37 733.733 707 734L707.904 733.367Z" fill="#4F533D" fill-rule="evenodd"/><path d="M707.985 729.037C707.979 728.431 707.931 727.813 707.836 727.187 707.748 726.611 707.604 726.03 707.448 725.447 706.591 722.239 704.761 719.033 702.429 716.653 701.976 716.19 701.512 715.745 701.026 715.353 700.494 714.924 699.946 714.543 699.385 714.214 699.365 714.203 699.348 714.187 699.33 714.176 697.44 713.085 695.701 712.789 694.271 713.14 693.484 714.152 693.006 715.584 693 717.428 692.985 722.748 696.726 729.23 701.353 731.902 703.78 733.304 705.914 733.291 707.447 732.272 707.781 731.407 707.997 730.404 708 729.215 707.999 729.157 707.985 729.095 707.985 729.037Z" fill="#4F533D" fill-rule="evenodd"/><path d="M702.802 735.965C703.098 735.958 703.404 735.975 703.677 735.918 703.875 735.877 704.043 735.775 704.229 735.709 704.485 735.619 704.751 735.552 704.982 735.416 705.839 734.91 706.499 734.069 706.945 732.975L706.869 733.02C706.9 733.001 706.923 732.971 706.953 732.949 706.971 732.903 706.982 732.847 707 732.8 705.455 733.854 703.302 733.868 700.855 732.417 696.188 729.65 692.416 722.943 692.431 717.438 692.437 715.529 692.92 714.048 693.713 713 693.044 713.168 692.463 713.506 691.95 713.961 691.804 714.091 691.638 714.185 691.508 714.336 691.308 714.566 691.157 714.863 690.994 715.144 690.899 715.307 690.779 715.436 690.698 715.614 690.541 715.956 690.441 716.364 690.336 716.766 690.291 716.935 690.219 717.074 690.184 717.253 690.066 717.857 690.002 718.518 690 719.231 689.984 724.942 693.902 731.91 698.757 734.788 698.848 734.842 698.934 734.863 699.024 734.914 699.535 735.199 700.043 735.456 700.529 735.626 700.73 735.696 700.912 735.705 701.107 735.756 701.47 735.851 701.838 735.965 702.181 735.995 702.401 736.014 702.593 735.969 702.802 735.965Z" fill="#6E7455" fill-rule="evenodd"/><path d="M723.61 718.684C725.459 717.613 728.019 717.764 730.849 719.391 736.485 722.632 741.019 730.479 741 736.93 740.991 740.126 739.858 742.379 738.028 743.438L728.419 749C730.25 747.942 731.381 745.688 731.391 742.493 731.409 736.042 726.876 728.196 721.24 724.955 718.41 723.326 715.849 723.176 714 724.247L723.61 718.684Z" fill="#424633" fill-rule="evenodd"/><path d="M721.032 725.386C715.498 722.159 711.018 724.761 711 731.183 710.982 737.579 715.433 745.388 720.968 748.614 726.502 751.84 730.982 749.238 731 742.842 731.018 736.42 726.567 728.612 721.032 725.386Z" fill="#5B6047" fill-rule="evenodd"/><path d="M729.904 745.367C729.946 745.249 729.958 745.116 730 745 729.644 745.3 729.37 745.733 729 746L729.904 745.367Z" fill="#4F533D" fill-rule="evenodd"/><path d="M729.984 742.038C729.977 741.432 729.927 740.815 729.826 740.188 729.732 739.612 729.578 739.031 729.412 738.448 728.497 735.24 726.547 732.034 724.058 729.654 723.574 729.191 723.08 728.747 722.561 728.354 721.994 727.925 721.409 727.544 720.811 727.215 720.79 727.204 720.772 727.188 720.752 727.176 718.736 726.085 716.881 725.789 715.355 726.14 714.516 727.152 714.006 728.585 714 730.428 713.984 735.748 717.974 742.23 722.91 744.902 725.499 746.304 727.775 746.291 729.41 745.272 729.767 744.407 729.997 743.404 730 742.215 729.999 742.159 729.984 742.097 729.984 742.038Z" fill="#4F533D" fill-rule="evenodd"/><path d="M724.802 747.965C725.098 747.959 725.404 747.976 725.677 747.921 725.875 747.881 726.043 747.784 726.229 747.72 726.483 747.634 726.751 747.571 726.982 747.442 727.839 746.957 728.499 746.153 728.945 745.107L728.869 745.15C728.9 745.132 728.923 745.103 728.953 745.082 728.971 745.038 728.982 744.985 729 744.939 727.455 745.947 725.302 745.961 722.854 744.573 718.187 741.928 714.415 735.51 714.43 730.245 714.436 728.42 714.919 727.002 715.712 726 715.043 726.161 714.461 726.484 713.95 726.92 713.805 727.043 713.638 727.134 713.508 727.278 713.308 727.498 713.157 727.782 712.994 728.051 712.899 728.206 712.779 728.33 712.698 728.5 712.541 728.828 712.441 729.218 712.336 729.602 712.291 729.764 712.219 729.897 712.184 730.068 712.066 730.646 712.002 731.278 712 731.96 711.984 737.423 715.902 744.088 720.758 746.841 720.849 746.893 720.934 746.913 721.024 746.962 721.536 747.234 722.044 747.48 722.53 747.642 722.73 747.709 722.913 747.718 723.108 747.767 723.471 747.858 723.839 747.967 724.182 747.996 724.4 748.013 724.593 747.971 724.802 747.965Z" fill="#6E7455" fill-rule="evenodd"/><path d="M746.474 730.529C747.912 729.7 749.904 729.818 752.105 731.078 756.489 733.587 760.015 739.662 760 744.655 759.993 747.129 759.111 748.874 757.688 749.694L750.215 754C751.638 753.18 752.52 751.435 752.527 748.961 752.54 743.967 749.015 737.893 744.631 735.384 742.43 734.123 740.438 734.006 739 734.835L746.474 730.529Z" fill="#424633" fill-rule="evenodd"/><path d="M745.026 736.065C740.599 733.584 737.015 735.586 737 740.525 736.986 745.446 740.546 751.452 744.974 753.934 749.401 756.416 752.985 754.413 753 749.493 753.014 744.555 749.453 738.548 745.026 736.065Z" fill="#5B6047" fill-rule="evenodd"/><path d="M751.913 751.371C751.948 751.26 751.965 751.109 752.002 751 751.643 751.306 751.376 751.74 751 752L751.913 751.371Z" fill="#4F533D" fill-rule="evenodd"/><path d="M751.988 748.026C751.982 747.572 751.946 747.108 751.868 746.639 751.798 746.208 751.683 745.771 751.558 745.334 750.872 742.929 749.409 740.523 747.543 738.739 747.181 738.393 746.81 738.059 746.421 737.764 745.995 737.444 745.557 737.157 745.108 736.911 745.093 736.903 745.078 736.891 745.064 736.882 743.552 736.063 742.161 735.842 741.017 736.104 740.387 736.864 740.005 737.938 740 739.321 739.988 743.311 742.981 748.172 746.682 750.177 748.623 751.228 750.331 751.218 751.557 750.454 751.826 749.804 751.997 749.052 752 748.161 751.999 748.116 751.988 748.07 751.988 748.026Z" fill="#4F533D" fill-rule="evenodd"/><path d="M747.792 752.973C748.017 752.967 748.251 752.981 748.461 752.939 748.613 752.908 748.741 752.833 748.883 752.784 749.078 752.717 749.283 752.67 749.458 752.568 750.113 752.195 750.618 751.573 750.959 750.765L750.901 750.798C750.925 750.784 750.942 750.762 750.965 750.746 750.98 750.712 750.987 750.671 751 750.634 749.818 751.413 748.173 751.423 746.301 750.352 742.733 748.307 739.848 743.35 739.86 739.28 739.864 737.87 740.233 736.775 740.84 736 740.329 736.124 739.884 736.374 739.492 736.71 739.381 736.806 739.254 736.875 739.154 736.986 739.002 737.157 738.886 737.376 738.761 737.584 738.689 737.704 738.598 737.799 738.535 737.932 738.415 738.185 738.338 738.486 738.258 738.783 738.223 738.908 738.168 739.01 738.141 739.143 738.05 739.59 738.002 740.077 738 740.605 737.987 744.827 740.984 749.977 744.696 752.104 744.766 752.143 744.832 752.159 744.9 752.197 745.292 752.407 745.68 752.597 746.051 752.723 746.204 752.775 746.344 752.782 746.493 752.82 746.77 752.89 747.052 752.974 747.314 752.997 747.485 753.01 747.633 752.977 747.792 752.973Z" fill="#6E7455" fill-rule="evenodd"/><path d="M773.032 735.829C767.354 729.123 757.795 725.232 750.547 720.878 715.729 699.968 680.941 678.999 646.11 658.115 642.526 655.966 638.38 653.132 634.193 653.004 630.116 652.88 624.353 655.557 622 659.147 627.614 663.856 635.021 667.124 641.256 670.87 642.527 670.838 645.275 673.286 646.426 673.977 683.33 696.153 720.222 718.353 757.129 740.525 760.588 742.601 764.171 744.799 766.413 748.316 767.912 750.667 768.409 753.257 768.791 756 772.358 754.672 776.266 750.334 776.896 746.197 777.357 743.173 776.33 739.725 773.032 735.829Z" fill="#1A1C1E" fill-rule="evenodd"/><path d="M700.299 788.893 762 753 756.702 764.108 695 800Z" fill="#424633" fill-rule="evenodd"/><path d="M692 767.836 753.565 731 762 752.163 700.436 789Z" fill="#8C9171" fill-rule="evenodd"/><path d="M560 691.768 621.523 655 753 731.232 691.476 768Z" fill="#6E7455" fill-rule="evenodd"/><path d="M700 788.698 691.551 767.715 559.792 692 547 703.265 550.498 711.561 694.705 800Z" fill="#4F533D" fill-rule="evenodd"/><path d="M703.896 790.265C704.356 787.239 703.329 783.788 700.027 779.89 694.343 773.179 684.773 769.285 677.516 764.928 642.659 744.003 607.832 723.019 572.961 702.12 569.372 699.969 565.222 697.134 561.032 697.005 556.424 696.864 552.126 699.881 548.752 702.927 545.923 705.481 544.374 709.17 545.239 713.177 545.724 715.422 546.774 717.474 547.835 719.478 552.001 727.349 556.536 735.01 561.197 742.551 562.184 744.149 563.197 745.76 564.539 747.024 565.693 748.111 567.052 748.907 568.4 749.693 570.352 751.691 574.025 752.976 576.406 754.366 579.456 756.146 582.506 757.925 585.557 759.705 600.492 768.421 615.363 777.263 630.234 786.108 637.672 790.533 645.107 794.96 652.552 799.371 657.764 802.46 665.151 808.871 671.218 808.998 673.031 809.036 674.795 808.447 676.523 807.863 681.038 806.338 685.708 805.265 690.087 803.301 696.464 800.442 702.999 796.156 703.896 790.265Z" fill="#1A1C1E" fill-rule="evenodd"/><path d="M564.253 700.683C566.033 699.613 568.499 699.763 571.224 701.392 576.651 704.633 581.017 712.48 581 718.931 580.991 722.126 579.9 724.379 578.138 725.438L568.885 731C570.647 729.942 571.738 727.688 571.747 724.493 571.764 718.042 567.399 710.196 561.972 706.955 559.246 705.327 556.781 705.177 555 706.248L564.253 700.683Z" fill="#424633" fill-rule="evenodd"/><path d="M562.032 707.386C556.498 704.159 552.018 706.761 552 713.183 551.982 719.579 556.433 727.387 561.968 730.614 567.502 733.84 571.982 731.237 572 724.842 572.017 718.42 567.566 710.612 562.032 707.386Z" fill="#5B6047" fill-rule="evenodd"/><path d="M570.904 727.368C570.946 727.25 570.958 727.116 571 727 570.644 727.3 570.37 727.733 570 728L570.904 727.368Z" fill="#4F533D" fill-rule="evenodd"/><path d="M569.985 724.037C569.978 723.431 569.931 722.813 569.836 722.187 569.749 721.611 569.604 721.03 569.448 720.447 568.59 717.239 566.761 714.033 564.429 711.653 563.976 711.19 563.512 710.746 563.026 710.353 562.494 709.924 561.946 709.543 561.385 709.214 561.366 709.203 561.348 709.187 561.33 709.176 559.44 708.085 557.702 707.789 556.271 708.14 555.485 709.152 555.006 710.584 555 712.428 554.985 717.749 558.726 724.23 563.353 726.903 565.78 728.305 567.914 728.291 569.447 727.273 569.781 726.407 569.997 725.404 570 724.216 570 724.158 569.986 724.096 569.985 724.037Z" fill="#4F533D" fill-rule="evenodd"/><path d="M565.802 729.966C566.097 729.959 566.403 729.976 566.677 729.922 566.874 729.882 567.043 729.784 567.229 729.721 567.484 729.635 567.751 729.571 567.982 729.442 568.839 728.958 569.499 728.154 569.945 727.107L569.868 727.151C569.9 727.132 569.923 727.103 569.953 727.083 569.971 727.038 569.982 726.985 570 726.94 568.455 727.948 566.302 727.961 563.854 726.573 559.187 723.928 555.415 717.511 555.43 712.245 555.435 710.42 555.918 709.002 556.711 708 556.043 708.16 555.461 708.484 554.949 708.919 554.805 709.042 554.637 709.133 554.508 709.277 554.308 709.497 554.157 709.781 553.994 710.05 553.9 710.205 553.78 710.329 553.699 710.499 553.542 710.827 553.441 711.217 553.336 711.601 553.291 711.763 553.22 711.896 553.184 712.067 553.066 712.645 553.003 713.277 553 713.96 552.984 719.422 556.903 726.087 561.758 728.84 561.849 728.892 561.934 728.912 562.025 728.961 562.536 729.233 563.044 729.479 563.531 729.642 563.732 729.708 563.914 729.718 564.109 729.766 564.472 729.857 564.841 729.966 565.183 729.995 565.399 730.015 565.593 729.972 565.802 729.966Z" fill="#6E7455" fill-rule="evenodd"/><path d="M585.61 725.683C587.459 724.613 590.02 724.764 592.85 726.391 598.486 729.632 603.018 737.479 603 743.93 602.991 747.125 601.858 749.379 600.028 750.438L590.419 756C592.249 754.941 593.382 752.688 593.391 749.493 593.409 743.042 588.877 735.196 583.24 731.955 580.409 730.326 577.849 730.176 576 731.247L585.61 725.683Z" fill="#424633" fill-rule="evenodd"/><path d="M583.032 732.386C577.498 729.159 573.018 731.761 573 738.183 572.982 744.579 577.433 752.388 582.968 755.614 588.502 758.84 592.982 756.238 593 749.842 593.018 743.42 588.567 735.612 583.032 732.386Z" fill="#5B6047" fill-rule="evenodd"/><path d="M591.904 752.368C591.946 752.25 591.958 752.116 592 752 591.644 752.3 591.37 752.733 591 753L591.904 752.368Z" fill="#4F533D" fill-rule="evenodd"/><path d="M591.985 749.037C591.978 748.431 591.931 747.813 591.836 747.187 591.748 746.611 591.604 746.03 591.448 745.447 590.591 742.24 588.762 739.033 586.429 736.653 585.976 736.19 585.512 735.745 585.026 735.352 584.494 734.924 583.946 734.543 583.385 734.214 583.366 734.203 583.348 734.186 583.33 734.176 581.44 733.085 579.702 732.789 578.271 733.14 577.485 734.152 577.006 735.584 577 737.428 576.985 742.749 580.726 749.23 585.353 751.903 587.78 753.305 589.914 753.291 591.447 752.273 591.781 751.407 591.997 750.404 592 749.216 591.999 749.158 591.985 749.096 591.985 749.037Z" fill="#4F533D" fill-rule="evenodd"/><path d="M587.049 754.966C587.327 754.959 587.615 754.976 587.873 754.921 588.058 754.882 588.217 754.784 588.392 754.721 588.632 754.634 588.883 754.571 589.1 754.442 589.907 753.958 590.528 753.154 590.948 752.107L590.876 752.15C590.905 752.132 590.927 752.103 590.955 752.082 590.973 752.038 590.983 751.985 591 751.939 589.546 752.947 587.519 752.96 585.216 751.573 580.824 748.927 577.273 742.51 577.287 737.245 577.293 735.419 577.747 734.002 578.494 733 577.865 733.16 577.317 733.484 576.834 733.918 576.698 734.042 576.541 734.133 576.419 734.277 576.231 734.496 576.089 734.781 575.936 735.05 575.847 735.205 575.734 735.329 575.658 735.499 575.51 735.827 575.415 736.217 575.316 736.601 575.274 736.763 575.207 736.896 575.173 737.067 575.062 737.645 575.002 738.277 575 738.959 574.985 744.422 578.673 751.087 583.242 753.84 583.328 753.892 583.408 753.912 583.493 753.961 583.975 754.233 584.453 754.479 584.91 754.641 585.1 754.708 585.271 754.717 585.455 754.766 585.796 754.857 586.144 754.966 586.465 754.995 586.671 755.014 586.852 754.971 587.049 754.966Z" fill="#6E7455" fill-rule="evenodd"/><path d="M607.609 737.683C609.459 736.613 612.019 736.764 614.849 738.391 620.485 741.632 625.018 749.479 625 755.93 624.991 759.125 623.858 761.379 622.028 762.438L612.419 768C614.248 766.94 615.381 764.688 615.391 761.493 615.409 755.041 610.876 747.196 605.24 743.955 602.41 742.326 599.849 742.176 598 743.247L607.609 737.683Z" fill="#424633" fill-rule="evenodd"/><path d="M605.032 744.385C599.498 741.159 595.018 743.761 595 750.183 594.982 756.579 599.433 764.388 604.968 767.614 610.502 770.84 614.982 768.238 615 761.842 615.017 755.42 610.566 747.611 605.032 744.385Z" fill="#5B6047" fill-rule="evenodd"/><path d="M613.904 764.365C613.946 764.25 613.958 764.116 614 764 613.644 764.3 613.37 764.733 613 765L613.904 764.365Z" fill="#4F533D" fill-rule="evenodd"/><path d="M613.985 761.037C613.978 760.431 613.931 759.813 613.836 759.187 613.748 758.611 613.604 758.03 613.448 757.447 612.591 754.239 610.762 751.033 608.429 748.653 607.976 748.19 607.512 747.745 607.026 747.353 606.494 746.924 605.946 746.543 605.385 746.214 605.367 746.203 605.348 746.186 605.33 746.176 603.44 745.085 601.702 744.789 600.271 745.14 599.485 746.152 599.006 747.584 599 749.428 598.985 754.748 602.726 761.23 607.353 763.902 609.78 765.304 611.914 765.291 613.447 764.272 613.781 763.406 613.997 762.404 614 761.215 613.999 761.157 613.985 761.095 613.985 761.037Z" fill="#4F533D" fill-rule="evenodd"/><path d="M608.802 766.967C609.098 766.96 609.404 766.977 609.677 766.922 609.875 766.883 610.043 766.785 610.229 766.722 610.484 766.636 610.751 766.572 610.982 766.443 611.839 765.959 612.499 765.155 612.945 764.108L612.868 764.151C612.9 764.133 612.923 764.104 612.953 764.083 612.971 764.039 612.982 763.986 613 763.939 611.455 764.947 609.302 764.961 606.855 763.573 602.188 760.927 598.416 754.51 598.431 749.245 598.437 747.419 598.92 746.002 599.713 745 599.044 745.16 598.463 745.484 597.95 745.919 597.805 746.043 597.638 746.134 597.508 746.277 597.308 746.496 597.157 746.781 596.994 747.05 596.899 747.205 596.779 747.329 596.698 747.499 596.542 747.827 596.441 748.217 596.336 748.601 596.291 748.763 596.219 748.896 596.184 749.067 596.066 749.645 596.003 750.277 596 750.959 595.984 756.422 599.902 763.087 604.757 765.84 604.848 765.892 604.932 765.912 605.024 765.961 605.535 766.233 606.043 766.479 606.529 766.641 606.73 766.708 606.912 766.717 607.107 766.766 607.47 766.857 607.839 766.966 608.181 766.995 608.401 767.014 608.593 766.971 608.802 766.967Z" fill="#6E7455" fill-rule="evenodd"/><path d="M628.609 750.684C630.459 749.613 633.019 749.764 635.849 751.391 641.485 754.632 646.018 762.479 646 768.93 645.991 772.125 644.858 774.379 643.028 775.438L633.419 781C635.248 779.942 636.381 777.688 636.39 774.493 636.409 768.041 631.876 760.196 626.24 756.955 623.41 755.326 620.849 755.176 619 756.247L628.609 750.684Z" fill="#424633" fill-rule="evenodd"/><path d="M626.534 757.385C620.723 754.159 616.019 756.761 616 763.183 615.981 769.579 620.654 777.388 626.466 780.614 632.277 783.84 636.981 781.238 637 774.842 637.018 768.42 632.344 760.611 626.534 757.385Z" fill="#5B6047" fill-rule="evenodd"/><path d="M635.904 777.367C635.946 777.249 635.958 777.116 636 777 635.644 777.3 635.37 777.733 635 778L635.904 777.367Z" fill="#4F533D" fill-rule="evenodd"/><path d="M634.985 774.038C634.978 773.432 634.931 772.814 634.836 772.188 634.748 771.612 634.604 771.031 634.448 770.448 633.591 767.24 631.762 764.034 629.429 761.654 628.976 761.191 628.512 760.747 628.025 760.354 627.494 759.925 626.946 759.544 626.385 759.215 626.365 759.204 626.348 759.188 626.33 759.176 624.44 758.085 622.702 757.789 621.271 758.14 620.484 759.152 620.006 760.585 620 762.428 619.985 767.748 623.726 774.23 628.353 776.902 630.78 778.304 632.914 778.291 634.447 777.272 634.781 776.407 634.997 775.404 635 774.215 635 774.158 634.986 774.096 634.985 774.038Z" fill="#4F533D" fill-rule="evenodd"/><path d="M630.802 779.965C631.098 779.959 631.403 779.976 631.677 779.921 631.875 779.881 632.043 779.784 632.229 779.721 632.484 779.634 632.751 779.571 632.982 779.442 633.839 778.957 634.499 778.154 634.945 777.107L634.868 777.15C634.899 777.132 634.923 777.103 634.953 777.082 634.971 777.038 634.981 776.985 635 776.939 633.455 777.947 631.302 777.961 628.854 776.573 624.187 773.927 620.415 767.51 620.43 762.245 620.436 760.419 620.919 759.002 621.712 758 621.044 758.16 620.462 758.484 619.949 758.919 619.804 759.043 619.637 759.134 619.508 759.278 619.308 759.498 619.157 759.782 618.994 760.051 618.899 760.206 618.779 760.33 618.699 760.5 618.542 760.828 618.441 761.218 618.336 761.602 618.291 761.764 618.219 761.897 618.184 762.068 618.066 762.646 618.003 763.278 618 763.96 617.984 769.423 621.903 776.088 626.758 778.841 626.849 778.893 626.934 778.913 627.024 778.962 627.536 779.234 628.044 779.48 628.53 779.642 628.731 779.709 628.913 779.718 629.108 779.767 629.471 779.858 629.839 779.967 630.182 779.996 630.4 780.013 630.594 779.97 630.802 779.965Z" fill="#6E7455" fill-rule="evenodd"/><path d="M650.61 762.684C652.459 761.613 655.019 761.764 657.849 763.391 663.485 766.632 668.018 774.479 668 780.93 667.991 784.125 666.858 786.379 665.028 787.438L655.419 793C657.25 791.942 658.381 789.688 658.391 786.493 658.409 780.042 653.876 772.196 648.24 768.955 645.41 767.326 642.849 767.176 641 768.247L650.61 762.684Z" fill="#424633" fill-rule="evenodd"/><path d="M648.032 769.385C642.498 766.159 638.018 768.762 638 775.183 637.982 781.579 642.433 789.387 647.968 792.615 653.502 795.84 657.982 793.238 658 786.842 658.017 780.421 653.566 772.612 648.032 769.385Z" fill="#5B6047" fill-rule="evenodd"/><path d="M656.904 789.367C656.946 789.249 656.958 789.116 657 789 656.644 789.3 656.37 789.733 656 790L656.904 789.367Z" fill="#4F533D" fill-rule="evenodd"/><path d="M656.985 786.037C656.978 785.431 656.931 784.813 656.836 784.187 656.748 783.611 656.604 783.03 656.448 782.447 655.591 779.239 653.762 776.033 651.429 773.653 650.976 773.19 650.512 772.745 650.025 772.353 649.494 771.924 648.946 771.543 648.385 771.214 648.365 771.203 648.348 771.187 648.33 771.176 646.44 770.085 644.702 769.789 643.271 770.14 642.484 771.152 642.006 772.584 642 774.428 641.985 779.748 645.726 786.23 650.353 788.902 652.78 790.304 654.914 790.291 656.447 789.272 656.781 788.407 656.997 787.404 657 786.215 657 786.158 656.986 786.096 656.985 786.037Z" fill="#4F533D" fill-rule="evenodd"/><path d="M651.802 791.967C652.098 791.96 652.403 791.977 652.677 791.922 652.875 791.883 653.043 791.785 653.229 791.722 653.484 791.636 653.751 791.572 653.982 791.443 654.839 790.959 655.499 790.155 655.944 789.108L655.868 789.151C655.899 789.133 655.923 789.104 655.953 789.083 655.971 789.039 655.981 788.986 656 788.939 654.455 789.947 652.302 789.961 649.854 788.573 645.187 785.927 641.415 779.511 641.43 774.245 641.436 772.42 641.919 771.002 642.712 770 642.044 770.16 641.462 770.484 640.949 770.918 640.804 771.042 640.637 771.133 640.508 771.277 640.308 771.497 640.157 771.781 639.994 772.05 639.899 772.205 639.779 772.329 639.699 772.499 639.542 772.827 639.441 773.217 639.336 773.601 639.291 773.763 639.219 773.896 639.184 774.067 639.066 774.645 639.003 775.277 639 775.959 638.984 781.422 642.903 788.087 647.758 790.84 647.849 790.892 647.934 790.912 648.024 790.961 648.536 791.233 649.044 791.479 649.53 791.641 649.731 791.708 649.913 791.717 650.108 791.766 650.471 791.857 650.839 791.965 651.182 791.995 651.4 792.014 651.594 791.972 651.802 791.967Z" fill="#6E7455" fill-rule="evenodd"/><path d="M674.118 774.529C675.487 773.7 677.384 773.818 679.481 775.078 683.656 777.587 687.015 783.662 687 788.655 686.993 791.129 686.154 792.874 684.799 793.694L677.681 798C679.036 797.18 679.876 795.435 679.882 792.961 679.896 787.967 676.538 781.893 672.363 779.384 670.267 778.123 668.369 778.006 667 778.835L674.118 774.529Z" fill="#424633" fill-rule="evenodd"/><path d="M672.026 780.065C667.599 777.584 664.014 779.586 664 784.525 663.986 789.446 667.546 795.452 671.974 797.934 676.401 800.416 679.985 798.413 680 793.493 680.013 788.555 676.453 782.547 672.026 780.065Z" fill="#5B6047" fill-rule="evenodd"/><path d="M678.894 795.371C678.929 795.26 678.948 795.109 679.002 795 678.643 795.306 678.357 795.74 678 796.003L678.894 795.371Z" fill="#4F533D" fill-rule="evenodd"/><path d="M678.988 792.829C678.982 792.344 678.945 791.85 678.868 791.35 678.798 790.888 678.683 790.424 678.558 789.958 677.871 787.392 676.409 784.826 674.543 782.922 674.181 782.552 673.81 782.196 673.42 781.882 672.996 781.54 672.557 781.234 672.108 780.972 672.092 780.963 672.078 780.95 672.064 780.941 670.552 780.067 669.161 779.832 668.017 780.111 667.387 780.922 667.005 782.067 667 783.542 666.988 787.798 669.98 792.984 673.682 795.122 675.623 796.244 677.331 796.233 678.557 795.418 678.825 794.725 678.996 793.923 679 792.972 679 792.925 678.988 792.876 678.988 792.829Z" fill="#4F533D" fill-rule="evenodd"/><path d="M674.792 797.97C675.017 797.964 675.252 797.979 675.461 797.934 675.612 797.902 675.741 797.823 675.883 797.771 676.077 797.7 676.281 797.648 676.458 797.542 677.113 797.146 677.617 796.488 677.959 795.633L677.9 795.669C677.924 795.654 677.942 795.629 677.964 795.614 677.979 795.577 677.987 795.534 678 795.496 676.818 796.32 675.173 796.331 673.301 795.196 669.733 793.031 666.848 787.782 666.86 783.474 666.863 781.98 667.233 780.821 667.84 780 667.329 780.131 666.884 780.396 666.492 780.752 666.381 780.853 666.254 780.926 666.154 781.044 666.002 781.225 665.886 781.457 665.762 781.677 665.689 781.805 665.598 781.904 665.535 782.045 665.415 782.314 665.338 782.632 665.258 782.946 665.224 783.079 665.168 783.187 665.141 783.328 665.051 783.801 665.002 784.317 665 784.876 664.988 789.346 667.984 794.799 671.696 797.051 671.766 797.093 671.832 797.11 671.9 797.15 672.292 797.372 672.68 797.573 673.051 797.707 673.205 797.762 673.344 797.77 673.493 797.809 673.77 797.884 674.052 797.973 674.314 797.997 674.483 798.01 674.631 797.975 674.792 797.97Z" fill="#6E7455" fill-rule="evenodd"/><path d="M700.032 780.633C694.355 773.862 684.795 769.933 677.547 765.538 642.729 744.424 607.941 723.252 573.11 702.165 569.526 699.995 565.38 697.135 561.194 697.004 557.116 696.879 551.353 699.582 549 703.206 554.615 707.961 562.021 711.261 568.256 715.044 569.527 715.012 572.275 717.483 573.426 718.181 610.33 740.572 647.222 762.988 684.129 785.374 687.588 787.471 691.171 789.69 693.413 793.241 694.912 795.615 695.409 798.23 695.791 801 699.358 799.659 703.266 795.279 703.896 791.102 704.357 788.048 703.33 784.567 700.032 780.633Z" fill="#1A1C1E" fill-rule="evenodd"/><path d="M740.794 750 750 744.283 749.153 742 740 747.795Z" fill="#323436" fill-rule="evenodd"/><path d="M713.451 702 720 720.236 709.78 737 705 712.772Z" fill="#5B6047" fill-rule="evenodd"/><path d="M705.257 712 710 737.199 694.805 746 691 720.258Z" fill="#4F533D" fill-rule="evenodd"/><path d="M691.266 721 695 745.628 670.716 751 665 727.248Z" fill="#5B6047" fill-rule="evenodd"/><path d="M665.275 726.739 671 751 614.454 723.364 581 694.185 586.733 684 626.703 692.046Z" fill="#4F533D" fill-rule="evenodd"/><path d="M587 684.223 631.867 662 663.778 669.773 713 701.577 704.829 712.535 690.938 720.612 664.86 727 616.58 695.74Z" fill="#6E7455" fill-rule="evenodd"/><path d="M631.997 662 587 684.395 616.666 696 664 669.832Z" fill="#8C9171" fill-rule="evenodd"/><path d="M704 715C704 715 707.417 717.291 708.641 726.079 709.864 734.868 707.575 738 707.575 738L704 715Z" fill="#424633" fill-rule="evenodd"/><path d="M693 720.18 703.308 715 706.776 726.41 707 737.819 696.692 743 696.151 730.819Z" fill="#424633" fill-rule="evenodd"/><path d="M693 720C693 720 697.101 722.291 698.569 731.08 700.036 739.868 697.289 743 697.289 743L693 720Z" fill="#424633" fill-rule="evenodd"/><path d="M703.247 733.6C702.535 730.95 703.415 727.189 705.212 725.201 707.009 723.212 709.041 723.749 709.753 726.4 710.465 729.05 709.585 732.811 707.788 734.799 705.991 736.788 703.958 736.251 703.247 733.6Z" fill="#424633" fill-rule="evenodd"/><path d="M705.19 736 701.212 734.981C700.348 734.775 699.627 733.972 699.255 732.628 698.519 729.97 699.429 726.198 701.286 724.204 702.203 723.219 703.18 722.851 704.022 723.053L708 724.072C707.158 723.872 706.181 724.238 705.264 725.223 703.407 727.217 702.499 730.989 703.233 733.647 703.606 734.992 704.328 735.795 705.19 736Z" fill="#6E7455" fill-rule="evenodd"/><path d="M707.42 725.101C706.948 724.893 706.415 725 705.884 725.481 704.55 726.686 703.74 729.796 704.076 732.43 704.279 734.013 704.852 735.06 705.569 735.377L806.149 779 808 768.724 707.42 725.101Z" fill="#5B6047" fill-rule="evenodd"/><path d="M809.893 771.21C809.421 768.444 807.519 767.234 805.641 768.505 803.771 769.769 802.634 773.034 803.107 775.8 803.577 778.554 805.479 779.763 807.349 778.498 809.227 777.227 810.365 773.963 809.893 771.21Z" fill="#4F533D" fill-rule="evenodd"/><path d="M807.924 772.043C807.586 770.283 806.228 769.513 804.887 770.321 803.551 771.126 802.739 773.203 803.076 774.963 803.412 776.716 804.77 777.486 806.106 776.68 807.449 775.873 808.261 773.796 807.924 772.043Z" fill="#1A1C1E" fill-rule="evenodd"/><path d="M622.569 675.009 622.569 675.009C622.064 674.758 622.031 674.334 622.498 674.063L629.186 670.214C629.652 669.943 630.439 669.927 630.944 670.179L630.944 670.179C631.449 670.431 631.481 670.854 631.015 671.126L624.327 674.974C623.862 675.245 623.074 675.261 622.569 675.009ZM628.155 676.881 634.844 673.033C635.31 672.762 635.278 672.338 634.773 672.086L634.773 672.086C634.267 671.834 633.48 671.85 633.013 672.121L626.326 675.97C625.859 676.241 625.891 676.665 626.396 676.917L626.396 676.917C626.902 677.168 627.688 677.154 628.155 676.881ZM631.982 678.79 638.67 674.941C639.137 674.67 639.104 674.246 638.599 673.994L638.599 673.994C638.094 673.743 637.307 673.759 636.841 674.03L630.152 677.878C629.685 678.149 629.717 678.573 630.223 678.825L630.223 678.825C630.728 679.076 631.516 679.061 631.982 678.79ZM611.401 681.007 611.401 681.007C610.895 680.755 610.863 680.331 611.33 680.06L618.018 676.211C618.484 675.94 619.272 675.924 619.777 676.176L619.777 676.176C620.282 676.428 620.313 676.852 619.847 677.123L613.159 680.972C612.692 681.243 611.906 681.259 611.401 681.007ZM616.986 682.879 623.674 679.03C624.141 678.759 624.109 678.335 623.604 678.083L623.604 678.083C623.098 677.832 622.312 677.848 621.845 678.119L615.157 681.967C614.691 682.238 614.723 682.662 615.228 682.914L615.228 682.914C615.732 683.166 616.52 683.15 616.986 682.879ZM620.813 684.786 627.501 680.937C627.967 680.666 627.935 680.242 627.43 679.991L627.43 679.991C626.925 679.739 626.138 679.755 625.672 680.026L618.983 683.875C618.516 684.146 618.548 684.569 619.053 684.821L619.053 684.821C619.56 685.073 620.346 685.057 620.813 684.786Z" fill="#424633" fill-rule="evenodd"/><path d="M669.531 700.8C667.553 704.454 659.897 706.622 652.426 705.643 649.967 705.32 647.832 704.696 646.149 703.875 643.533 702.599 642.001 700.846 642.007 699L642 701.122C641.994 702.968 643.526 704.721 646.141 705.997 647.824 706.818 649.958 707.441 652.418 707.765 659.889 708.745 667.544 706.576 669.523 702.923 669.839 702.339 669.992 701.752 669.993 701.174L670 699.052C670 699.629 669.848 700.216 669.531 700.8Z" fill="#5B6047" fill-rule="evenodd"/><path d="M665.863 693.336C664.178 692.377 662.044 691.649 659.578 691.276 652.106 690.131 644.435 692.656 642.47 696.929 641.143 699.791 642.71 702.705 646.142 704.66 647.826 705.619 649.96 706.348 652.421 706.725 659.893 707.87 667.551 705.336 669.53 701.07 670.857 698.209 669.294 695.29 665.863 693.336Z" fill="#888E65" fill-rule="evenodd"/><path d="M642.578 695.586C642.195 695.423 642.003 695.212 642.004 695L642 695.547C642 695.758 642.191 695.971 642.574 696.133L646.996 698 647 697.454 642.578 695.586Z" fill="#5B6047" fill-rule="evenodd"/><path d="M657 692 656.997 692.581 647 698 647.003 697.42Z" fill="#5B6047" fill-rule="evenodd"/><path d="M657 691.636 646.405 698 642.506 695.673C641.835 695.272 641.831 694.625 642.498 694.224L650.707 689.293C651.375 688.892 652.43 688.907 653.1 689.309L657 691.636Z" fill="#888E65" fill-rule="evenodd"/><path d="M785.5 646.5C808.696 646.5 827.5 663.513 827.5 684.5" stroke="#EB4F42" stroke-width="20.625" stroke-miterlimit="8" fill="none" fill-rule="evenodd"/><path d="M42.0001 0C65.1961-1.06944e-14 84.0002 17.0133 84.0002 38.0002" stroke="#4385F4" stroke-width="20.625" stroke-miterlimit="8" fill="none" fill-rule="evenodd" transform="matrix(-1 0 0 1 614.5 646.5)"/><path d="M41.9999 0C65.1959-5.34715e-15 83.9999 17.2371 83.9999 38.5" stroke="#31A750" stroke-width="20.625" stroke-miterlimit="8" fill="none" fill-rule="evenodd" transform="matrix(1 0 0 -1 743.5 815.5)"/><path d="M572.5 815.5C549.304 815.5 530.5 798.263 530.5 777" stroke="#FBBC03" stroke-width="20.625" stroke-miterlimit="8" fill="none" fill-rule="evenodd"/></g></svg>